<svg width="139" height="43" viewBox="0 0 139 43" fill="none" xmlns="http://www.w3.org/2000/svg">
<path d="M31.9211 0.168834C31.7618 0.306891 31.5706 0.848642 31.2626 2.00664C29.9772 6.86075 27.9908 12.5437 26.3869 15.975C25.8346 17.1324 25.5796 17.4089 25.0166 17.4089C24.8254 17.4089 23.0302 16.8565 21.0333 16.1871C13.8526 13.7864 9.35936 12.6816 5.29098 12.3101C0.0223079 11.832 -1.49664 14.18 1.5732 18.0146C4.32438 21.4562 10.241 25.259 14.4793 26.3208C15.7433 26.6396 17.0711 26.7885 17.8678 26.7033C20.2154 26.4593 22.3185 24.7808 24.613 21.3391C25.5584 19.9156 25.7389 19.7139 26.1851 19.5441C26.6524 19.3737 27.4704 19.565 30.1897 20.5103C32.9196 21.4667 32.9727 21.4985 33.1214 22.4439C33.4614 24.5999 34.2262 26.1191 34.9697 26.1191C35.5964 26.1191 35.7026 25.5453 35.1503 25.1204C34.7785 24.8341 34.5661 24.3664 34.343 23.2831C34.258 22.8791 34.258 22.6774 34.343 22.5076C34.5554 22.1036 34.8529 22.0828 36.1063 22.4016C37.1367 22.667 38.7831 22.9324 39.4099 22.9324C39.686 22.9324 39.9728 22.667 39.9728 22.4016C39.9728 22.0294 39.6966 21.9019 38.5282 21.7744C37.296 21.6365 35.2353 21.1479 34.5873 20.8401C33.9287 20.5213 33.8437 20.2559 33.6632 17.9398C33.4188 14.9229 33.302 12.5014 33.1214 7.42417C32.909 1.30543 32.8453 0.508771 32.5266 0.190108C32.2823 -0.0542559 32.1973 -0.0648603 31.9211 0.168834ZM31.9424 4.73655C31.9636 4.84259 32.0167 5.8302 32.0592 6.94598C32.1761 10.685 32.3248 13.8293 32.4947 16.5377L32.6753 19.2254L32.3779 19.5331C32.1867 19.7354 31.9636 19.8519 31.7936 19.8519C31.5493 19.8519 26.7268 18.2163 26.5993 18.0888C26.5781 18.0673 26.7799 17.5787 27.0455 17.0159C28.5751 13.7655 29.9242 10.2387 31.0607 6.52114C31.3475 5.58623 31.6131 4.75736 31.6343 4.6832C31.6981 4.49192 31.8786 4.5238 31.9424 4.73655ZM5.87521 13.4253C9.66741 13.8293 13.9906 14.9229 20.6403 17.1538C23.4126 18.0888 23.9225 18.2904 24.1774 18.5774C24.7086 19.172 24.5598 19.6717 23.2958 21.4667C21.9149 23.4315 20.1729 24.9721 18.8132 25.4392C18.0484 25.7047 16.4338 25.6942 15.2229 25.3969C12.9072 24.8342 10.0073 23.5063 7.58544 21.8915C5.90709 20.7764 5.02547 20.0646 3.71887 18.8005C2.00871 17.1324 1.06333 15.6666 1.06333 14.679C1.06333 14.0843 1.38199 13.7337 2.10428 13.532C3.15591 13.234 3.93136 13.2132 5.87521 13.4253Z" fill="black"></path>
<path d="M49.9524 9.26347C47.8386 10.3044 46.0221 15.5417 46.2346 19.9287C46.2983 21.0972 46.2771 21.2351 46.0647 21.6704L45.831 22.1381L45.7247 21.7771C45.576 21.2566 44.8537 20.5767 44.2801 20.4173C43.0904 20.0881 41.5926 21.1395 40.9978 22.7113C40.1693 24.8999 40.7641 26.7268 42.3043 26.7268C42.6336 26.7268 43.0266 26.6416 43.2709 26.5141C43.887 26.2167 44.8856 25.2187 45.6716 24.1348C46.532 22.9455 46.6701 22.9137 47.1056 23.816C47.5624 24.7828 48.2953 25.5369 49.2514 26.0046C49.9418 26.3443 50.1649 26.3976 50.9614 26.4399C53.543 26.5674 56.878 25.2395 59.4596 23.062C59.9904 22.6157 60.2559 22.3079 60.2988 22.1063C60.3515 21.7979 60.3515 21.7979 61.0099 21.8616C61.7327 21.9254 62.6989 21.7237 63.4217 21.3626C63.6552 21.2351 63.8784 21.1609 63.9103 21.1928C63.9422 21.2247 63.8569 21.522 63.719 21.8616C63.5381 22.2975 63.464 22.6794 63.464 23.1791C63.464 24.114 63.7828 24.613 64.6539 25.0483C65.2382 25.3352 65.3338 25.3456 66.7566 25.3456C68.3929 25.3456 69.3805 25.1868 71.0057 24.6449C72.2379 24.2305 73.8846 23.4445 74.8195 22.818C75.2229 22.5415 75.584 22.3184 75.6262 22.3184C75.6692 22.3184 75.7329 22.6053 75.7538 22.9559C75.7856 23.4445 75.8709 23.6996 76.1148 24.0502C77.0816 25.4204 79.334 26.0365 81.522 25.516C83.1049 25.1335 85.1653 24.0392 86.8009 22.7113C87.6083 22.0529 87.6512 22.0314 87.5127 22.3932C87.311 22.8922 87.3533 24.114 87.5979 24.6553C87.8633 25.261 88.0546 25.4093 88.6174 25.4731C89.4462 25.5687 90.4976 24.7932 91.454 23.3808C91.6875 23.0412 91.9315 22.7224 91.9953 22.6905C92.2184 22.5415 92.5795 22.7543 92.9198 23.2318C93.3765 23.8479 94.3752 24.4959 95.3094 24.7828C96.7648 25.2187 98.7621 24.8889 100.78 23.8694C101.492 23.5083 103.383 22.2761 104.051 21.7341L104.381 21.4583L104.137 22.6586C103.861 24.0288 103.829 24.4536 104.009 24.6345C104.296 24.9207 104.573 24.7301 105.858 23.4023C106.569 22.6476 107.419 21.8616 107.738 21.6385C108.407 21.1714 109.14 20.9267 109.48 21.0543C109.608 21.0972 109.958 21.4687 110.255 21.8831C110.967 22.8603 111.742 23.5506 112.592 23.9546C113.24 24.2623 113.347 24.2838 114.557 24.2838C115.609 24.2838 115.959 24.2409 116.565 24.0392C117.754 23.6462 119.359 22.7543 120.113 22.0744L120.346 21.8616V22.5949C120.357 23.9117 120.931 24.7191 121.812 24.6234C122.641 24.5278 123.459 23.8271 124.595 22.2338C125.042 21.6066 125.254 21.6385 125.987 22.4569C126.922 23.4979 128.313 24.1244 129.705 24.1244C131.542 24.1244 133.943 23.1257 136.216 21.4264C137.99 20.0881 138.351 19.6522 137.958 19.2593C137.703 19.0042 137.353 19.1421 136.535 19.8331C134.782 21.2885 132.987 22.3184 131.351 22.7861C128.515 23.6143 126.55 22.4992 125.764 19.6314C125.573 18.9196 125.403 18.7492 124.999 18.8448C124.787 18.8982 124.659 19.0894 124.383 19.716C123.937 20.7361 122.906 22.5311 122.407 23.1257C121.78 23.9013 121.409 23.6885 121.409 22.5519C121.409 21.7133 121.94 20.619 122.779 19.7797C123.459 19.079 123.969 18.7388 124.861 18.3881C125.69 18.0589 125.764 17.9951 125.764 17.6341C125.764 17.124 125.413 17.0498 124.574 17.3686C123.544 17.7512 122.875 18.2183 121.345 19.6203C118.254 22.4355 116.448 23.3593 114.292 23.2533C112.911 23.1791 112.167 22.7113 111.03 21.1714C110.319 20.2046 109.969 19.9814 109.182 19.9814C108.396 19.9814 107.409 20.47 106.325 21.4049C105.889 21.7875 105.496 22.0529 105.443 22.0106C105.401 21.9677 105.465 21.4472 105.582 20.8526C105.836 19.6099 105.783 19.3445 105.252 19.3445C104.986 19.3445 104.902 19.4082 104.806 19.6633C104.742 19.8331 104.625 19.9814 104.551 19.9814C104.487 19.9814 104.126 20.2475 103.754 20.5767C102.809 21.4049 101.014 22.5949 99.9729 23.0835C97.4551 24.2519 95.3413 24.1882 94.0668 22.8922C93.61 22.4251 92.8879 21.0334 92.7818 20.4173C92.6966 19.9072 92.3993 19.6099 92.0701 19.6945C91.8788 19.7478 91.6875 20.0452 91.2627 20.9267C90.2107 23.1043 89.1274 24.6345 88.7449 24.4855C88.5217 24.4003 88.3415 23.6358 88.4157 23.1257C88.5328 22.4355 89.2231 21.2566 89.9244 20.5552C90.3915 20.0881 90.8164 19.7901 91.411 19.5039C91.8677 19.2911 92.3674 19.0576 92.5158 18.9834C92.8137 18.8448 92.9198 18.4519 92.7181 18.2079C92.5053 17.9633 91.8678 18.0908 90.8801 18.5898C90.402 18.824 89.7754 19.2378 89.467 19.5039C89.0318 19.8858 88.862 19.971 88.6603 19.9287C88.4476 19.8754 88.2355 20.0244 87.3533 20.8311C85.5056 22.5311 83.5824 23.7633 81.8407 24.3476C81.235 24.5597 80.8844 24.6026 79.9286 24.6026C78.8766 24.6026 78.6964 24.5707 78.1018 24.2942C77.3152 23.9331 76.9541 23.5721 76.8058 23.0093C76.6672 22.4888 76.8058 21.511 77.1246 20.7042C77.3152 20.2156 77.3152 20.1519 77.1669 19.9177C77.0816 19.7797 76.9118 19.6633 76.7947 19.6633C76.5507 19.6633 76.1578 20.0133 76.1578 20.2364C76.1578 20.3217 75.8923 20.6294 75.5521 20.9378C73.4168 22.8818 69.7097 24.3365 66.7566 24.3684C65.8543 24.3795 65.6096 24.3476 65.2063 24.1459C64.3455 23.7315 64.2818 23.1999 64.8875 21.8194C65.3019 20.863 65.3123 20.3958 64.9402 20.0985C64.5472 19.7901 64.1861 19.822 63.2942 20.2475C62.4764 20.6294 61.4139 20.9059 61.1374 20.7999C60.9039 20.7042 60.9253 20.4277 61.2441 19.4928C61.7536 17.9743 61.5838 17.1136 60.7874 17.1136C60.1284 17.1136 59.5871 17.528 59.1726 18.3562C58.822 19.0576 58.8961 20.4173 59.321 20.9378C59.6716 21.373 59.5975 21.5539 58.8116 22.2338C56.4427 24.2727 53.4044 25.505 51.0675 25.3775C50.3454 25.3456 50.0799 25.2714 49.6231 25.0274C48.6564 24.4959 47.9979 23.5935 47.6261 22.2227L47.4456 21.5858L48.5715 19.2697C50.6747 14.936 51.6199 12.2061 51.6199 10.443C51.6199 9.72019 51.599 9.63562 51.3121 9.3487C50.94 8.97721 50.5791 8.95574 49.9524 9.26347ZM50.5579 10.4749C50.7065 10.6551 50.5791 11.3987 50.1117 12.8437C49.5063 14.7662 47.5836 18.8878 47.3605 18.7492C47.2437 18.675 47.2862 18.027 47.488 16.6354C47.8492 14.2666 48.784 11.8028 49.7293 10.7826C50.1861 10.2836 50.3454 10.2199 50.5579 10.4749ZM60.2669 19.068C60.1602 19.3868 60.0438 19.6314 59.9904 19.5995C59.8844 19.5358 59.98 19.0894 60.1921 18.675C60.4367 18.1968 60.4686 18.42 60.2669 19.068ZM44.4288 21.66C44.535 21.7556 44.705 21.9788 44.7899 22.1381C44.9174 22.4036 44.9918 22.4355 45.2998 22.4036L45.6504 22.3613L45.1192 23.1362C44.4607 24.0925 43.4409 25.2077 42.9735 25.4946C42.5062 25.7815 42.1131 25.7815 41.9113 25.4842C41.6563 25.1231 41.6882 23.8479 41.9644 23.1043C42.1981 22.4778 42.8992 21.66 43.3666 21.4687C43.6746 21.3412 44.1738 21.4264 44.4288 21.66Z" fill="black"></path>
<path d="M77.8052 17.4325C77.614 17.6023 77.2952 17.8358 77.115 17.9738C76.7116 18.2503 76.6582 18.6009 76.977 18.8872C77.1787 19.0681 77.2106 19.0785 77.5613 18.9087C78.1136 18.6432 78.8891 17.8892 78.8891 17.6237C78.8891 17.0714 78.3368 16.9758 77.8052 17.4325Z" fill="black"></path>
<path d="M99.8188 35.3271L99.3926 35.9272H99.8057C100.073 35.9272 100.419 35.7672 100.752 35.5002L101.285 35.0871L100.859 34.901C100.619 34.8071 100.393 34.7271 100.339 34.7271C100.286 34.7271 100.059 34.994 99.8188 35.3271Z" fill="#3D5C35"></path>
<path d="M27.143 42.7261H28.0761V40.8597H29.0226C30.2623 40.8597 30.9288 40.6466 31.4086 40.0996C32.4218 38.9533 31.8752 37.1138 30.4222 36.7407C30.089 36.6607 29.2225 36.5938 28.4893 36.5938H27.143V42.7261ZM30.6221 37.914C30.8888 38.1801 31.0087 38.4332 31.0087 38.7263C31.0087 39.0202 30.8888 39.2733 30.6221 39.5395C30.2489 39.8996 30.1689 39.9265 29.1559 39.9265H28.0761V37.527H29.1559C30.1689 37.527 30.2489 37.5539 30.6221 37.914Z" fill="#3D5C35"></path>
<path d="M37.3139 36.7265C36.6741 36.9266 36.2076 37.5667 36.2076 38.2468C36.2076 38.5529 36.3008 38.9399 36.4208 39.113C36.6474 39.4192 37.6472 39.9262 38.3937 40.1123C39.0469 40.2724 39.4067 40.5924 39.4067 41.0056C39.4067 41.8587 38.1938 42.0588 36.9541 41.4056L36.2076 41.0056L36.0075 41.3795C35.8343 41.7257 35.8343 41.7787 36.0609 41.9787C36.4608 42.3388 37.6205 42.7258 38.3137 42.7258C40.0733 42.7258 41.1397 41.2056 40.2066 40.0193C39.98 39.7262 39.5668 39.5261 38.0338 38.953C37.2872 38.686 37.0607 38.1668 37.4872 37.7397C37.7805 37.4466 38.8069 37.4736 39.5001 37.7936L40.0733 38.0467L40.2866 37.6467C40.3932 37.4197 40.4732 37.2205 40.4465 37.1935C39.9134 36.7404 38.1537 36.4734 37.3139 36.7265Z" fill="#3D5C35"></path>
<path d="M45.1387 42.7261H46.2051V36.5938H45.1387V42.7261Z" fill="#3D5C35"></path>
<path d="M52.6565 36.8065C51.9903 37.0466 51.1771 37.8197 50.9109 38.4598C50.6039 39.153 50.657 40.3393 51.004 41.0725C51.7502 42.6058 53.9097 43.1789 55.4692 42.2588C56.1231 41.8857 56.2023 41.6856 55.8431 41.3525C55.6161 41.1655 55.5631 41.1656 55.0699 41.4725C53.6436 42.3388 51.8572 41.4595 51.6972 39.8192C51.6302 39.0861 51.8302 38.5929 52.4303 38.0328C53.1635 37.3535 54.2029 37.3135 55.1899 37.9136L55.6561 38.2067L55.8692 37.8736C56.1362 37.4597 56.0693 37.3397 55.363 36.9804C54.6568 36.6065 53.3897 36.5273 52.6565 36.8065Z" fill="#3D5C35"></path>
<path d="M62.1878 36.7804C61.4416 37.0466 60.9084 37.4867 60.5084 38.1668C60.2022 38.673 60.1353 38.953 60.1353 39.6731C60.1353 40.4194 60.2022 40.6463 60.5353 41.2056C60.7884 41.6057 61.1885 42.0057 61.5885 42.2588C62.1747 42.6189 62.3617 42.6589 63.321 42.6589C64.5212 42.6589 64.9343 42.4989 65.6536 41.7657C66.2407 41.1925 66.4938 40.5794 66.4938 39.7262C66.5068 38.753 66.2807 38.1929 65.6275 37.5536C64.7204 36.6735 63.361 36.3534 62.1878 36.7804ZM64.3212 37.7267C65.6136 38.3929 65.9076 40.0332 64.9205 41.1125C63.5611 42.6189 61.1346 41.6857 61.1346 39.6592C61.1346 38.726 61.6016 38.0329 62.4678 37.6336C62.8279 37.4736 63.9342 37.5267 64.3212 37.7267Z" fill="#3D5C35"></path>
<path d="M71.1328 42.7261H74.7317V41.7929H72.066V36.5938H71.1328V42.7261Z" fill="#3D5C35"></path>
<path d="M80.704 36.7807C79.3969 37.2607 78.5976 38.3531 78.5976 39.6333C78.5976 42.299 81.8765 43.7123 83.9429 41.939C85.5962 40.5396 85.2762 37.967 83.3297 36.9668C82.6635 36.6206 81.3703 36.5276 80.704 36.7807ZM83.0097 37.8339C83.2628 37.9931 83.6098 38.407 83.7829 38.7663C84.2099 39.6464 84.1029 40.4065 83.4228 41.1128C81.5964 43.0192 78.6907 40.9258 79.8909 38.5671C80.384 37.58 82.0365 37.1807 83.0097 37.8339Z" fill="#3D5C35"></path>
<path d="M91.0876 36.7935C90.3144 37.0866 89.8352 37.4866 89.4351 38.1667C89.1281 38.6729 89.062 38.953 89.062 39.6731C89.062 40.4193 89.1281 40.6463 89.4613 41.2056C89.7152 41.6056 90.1144 42.0057 90.5145 42.2588C91.1015 42.6058 91.2876 42.6589 92.1808 42.6589C92.994 42.6589 93.3271 42.5919 93.8603 42.3257L94.5273 41.9926L94.6073 39.7931H93.7941V40.5924C93.7941 41.3525 93.7803 41.3925 93.3672 41.6056C93.1271 41.7387 92.6209 41.8326 92.2339 41.8326C91.3677 41.8326 90.6075 41.3795 90.2614 40.6594C89.9544 40.0062 90.0344 38.926 90.4345 38.3668C91.0615 37.4866 92.5009 37.2335 93.5272 37.8067L94.0873 38.1267L94.3273 37.7936C94.6473 37.3666 94.5134 37.2205 93.5802 36.8604C92.7409 36.5534 91.8208 36.5273 91.0876 36.7935Z" fill="#3D5C35"></path>
<path d="M99.5256 42.7261H100.459V36.5938H99.5256V42.7261Z" fill="#3D5C35"></path>
<path d="M107.337 36.7007C107.23 36.8738 104.725 42.5922 104.725 42.6592C104.725 42.6992 104.938 42.7261 105.191 42.7261C105.631 42.7261 105.684 42.6861 105.991 41.9929L106.311 41.2459L109.417 41.3259L109.71 42.0191C109.977 42.6992 110.003 42.7261 110.51 42.7261C110.936 42.7261 111.003 42.6861 110.936 42.4991C110.883 42.3791 110.296 41.0058 109.617 39.4334L108.391 36.5938H107.898C107.631 36.5938 107.377 36.6468 107.337 36.7007ZM108.444 39.0333C108.684 39.6065 108.91 40.1665 108.95 40.2727C109.004 40.4196 108.804 40.4596 107.871 40.4596C107.244 40.4596 106.724 40.4066 106.724 40.3527C106.724 40.2466 107.604 38.1132 107.737 37.9001C107.858 37.7 107.978 37.9001 108.444 39.0333Z" fill="#3D5C35"></path>
</svg>